<svg viewBox="-120 -120 240 240" xmlns="http://www.w3.org/2000/svg">
            <path d="M 86.68126659924977,0 C 89.2356980846405,15.532436253144363 72.80990310846515,20.54741018900321 58.91480048232306,34.0144759177223 C 45.01969785618097,47.48154164644139 45.82955621526217,47.94870597710073 31.10085609468141,53.86826291487636 C 16.372155974100647,59.78781985265199 18.98504951074025,51.74376478945023 3.532659244109154e-15,57.69270366882482 C -18.985049510740243,63.64164254819941 -28.693380434482464,82.76531912326482 -44.839341948279575,77.66401843237472 C -60.985303462076686,72.56271774148462 -56.70541841050557,56.70350551335811 -64.58384605518845,37.28750090526443 C -72.46227369987132,17.871496297170754 -79.0725823690596,17.073629166256268 -76.35305252701106,9.350552138233382e-15 C -73.63352268496251,-17.073629166256246 -65.41158308627914,-18.220312216987626 -53.705726686994296,-31.007015759760602 C -41.999870287709456,-43.793719302533574 -42.95605860162028,-43.69580813404988 -29.529626929871707,-51.1468141710919 C -16.103195258123137,-58.59782020813392 -16.645704346397537,-57.553241337744005 -1.1170806806410021e-14,-60.81103990792868 C 16.645704346397515,-64.06883847811335 24.87892182052837,-72.35195115509897 37.0531904557184,-64.17800845183059 C 49.22745909090843,-56.00406574856221 36.290055504877266,-44.159771207812796 48.697074540760106,-28.11526909485515 C 61.104093576642946,-12.070766981897503 84.12683511385903,-15.532436253144363 86.68126659924977,0 Z" fill="#9fff5b" />
        </svg>