<svg viewBox="-120 -120 240 240" xmlns="http://www.w3.org/2000/svg">
            <path d="M 92.63442870194993,0 C 90.20505446829992,15.860833885982931 66.20400013704183,19.509640319848987 54.16376895798422,34.80894068565785 C 42.123537778926604,50.10824105146672 47.706633737566406,63.7938998467377 34.01620495826327,74.48509905065171 C 20.325776178960144,85.17629825456572 7.693065275727765,86.9312825616994 -12.488490902944001,86.85936211887886 C -32.67004708161576,86.78744167605832 -53.99014878711359,88.21361224740465 -64.23830178533213,74.13495223483874 C -74.48645478355067,60.05629222227282 -61.52479465497774,37.67032820304127 -62.381928701214456,18.31698694726884 C -63.23906274745117,-1.03635430850359 -71.90022460904515,-5.564157411910701 -68.41128439284446,-20.08736551368012 C -64.92234417664378,-34.61057361544954 -57.253778110251936,-41.25690800144862 -45.395919447727195,-52.38968382383804 C -33.538060785202454,-63.52245964622746 -28.420106494853982,-66.6226563171792 -10.680946672261518,-74.2876158527443 C 7.058213150330948,-81.95257538830938 25.21917601737665,-96.25445559084065 40.96770796454399,-89.70676738811113 C 56.71623991171133,-83.15907918538161 55.378862932144976,-60.83584452843601 65.9912496987975,-42.41000101598853 C 76.60363646545004,-23.98415750354104 95.06380293559994,-15.860833885982931 92.63442870194993,0 Z" fill="#ffe83f" />
        </svg>